<svg width="1141" height="784" viewBox="0 0 1141 784" fill="none" xmlns="http://www.w3.org/2000/svg">
<ellipse opacity="0.5" cx="632.5" cy="383" rx="384.5" ry="307" stroke="black" stroke-width="4" stroke-linecap="round" stroke-dasharray="16 32 48 64"/>
<ellipse opacity="0.5" cx="607" cy="392.5" rx="492" ry="356.5" stroke="black" stroke-width="4" stroke-linecap="round" stroke-dasharray="16 32 48 64"/>
<ellipse opacity="0.5" cx="570.5" cy="392" rx="568.5" ry="390" stroke="black" stroke-width="4" stroke-linecap="round" stroke-dasharray="16 32 48 64"/>
<ellipse opacity="0.4" cx="635" cy="377" rx="263" ry="221" stroke="black" stroke-width="4" stroke-linecap="round" stroke-dasharray="20 23 38 54"/>
<ellipse opacity="0.3" cx="648" cy="381.5" rx="174" ry="121.5" stroke="black" stroke-width="4" stroke-linecap="round" stroke-dasharray="20 23 38 54"/>
<path fill-rule="evenodd" clip-rule="evenodd" d="M513.855 525.449C514.589 525.001 515.565 524.898 516.418 525.18L583.818 547.465C585.073 547.88 585.716 548.999 585.293 550.033C583.728 553.859 583.611 557.469 584.246 560.32C584.905 563.284 586.285 565.086 587.245 565.682C588.286 566.328 588.557 567.496 587.875 568.399C587.194 569.302 585.776 569.653 584.578 569.215L515.737 544.017C515.551 543.949 515.377 543.864 515.216 543.764C512.716 542.196 509.489 538.59 509.489 533.574C509.489 531.708 509.806 530.117 510.558 528.741C511.327 527.334 512.475 526.294 513.855 525.449ZM516.815 542.127C514.862 540.903 512.083 537.874 512.083 533.574C512.083 530.199 513.236 528.442 515.429 527.101L582.828 549.386C580.462 555.17 581.111 560.56 582.866 564.018C583.637 565.536 584.62 566.682 585.656 567.324L516.815 542.127Z" fill="black"/>
<path d="M641.918 505.876L576.723 485.676L515.093 527.3L585.891 551.173L641.918 505.876Z" fill="black"/>
<path fill-rule="evenodd" clip-rule="evenodd" d="M575.051 484.087C575.775 483.598 576.775 483.464 577.658 483.738L642.853 503.938C643.668 504.191 644.27 504.756 644.453 505.442C644.636 506.128 644.375 506.841 643.759 507.339L587.733 552.636C586.988 553.238 585.86 553.417 584.884 553.088L514.087 529.216C513.255 528.935 512.665 528.328 512.529 527.613C512.393 526.898 512.731 526.178 513.422 525.711L575.051 484.087ZM576.723 485.676L641.918 505.876L585.891 551.173L515.093 527.3L576.723 485.676Z" fill="black"/>
<path fill-rule="evenodd" clip-rule="evenodd" d="M643.327 504.443C644.33 505.182 644.448 506.416 643.598 507.269C641.474 509.401 640.262 511.814 640.175 514.013C640.092 516.143 641.045 518.155 643.499 519.757C644.064 520.126 644.409 520.668 644.449 521.252C644.491 521.835 644.224 522.405 643.713 522.822L587.567 568.755C587.022 569.2 586.256 569.427 585.48 569.371C584.704 569.314 584.001 568.981 583.565 568.465C580.159 564.427 576.875 557.022 580.895 549.28C581.035 549.011 581.244 548.768 581.509 548.568L639.791 504.462C640.78 503.712 642.325 503.704 643.327 504.443ZM641.571 505.972L583.29 550.079C580.251 555.93 581.888 561.617 584.348 565.447C584.785 566.127 585.247 566.747 585.714 567.301L641.861 521.368C641.22 520.95 640.658 520.507 640.169 520.042C637.58 517.576 637.067 514.509 638.026 511.515C638.646 509.576 639.883 507.668 641.571 505.972Z" fill="black"/>
<path fill-rule="evenodd" clip-rule="evenodd" d="M638.233 520.831C638.731 521.243 638.718 521.901 638.203 522.3L598.503 553.091C597.988 553.49 597.167 553.48 596.669 553.067C596.171 552.655 596.184 551.997 596.699 551.598L636.399 520.807C636.914 520.408 637.735 520.418 638.233 520.831ZM635.944 518.258C636.431 518.678 636.401 519.336 635.876 519.726L610.255 538.774C609.73 539.164 608.909 539.14 608.422 538.719C607.935 538.299 607.965 537.641 608.49 537.251L634.11 518.203C634.636 517.812 635.457 517.837 635.944 518.258ZM526.113 539.351C526.394 538.823 527.156 538.577 527.814 538.802L552.522 547.228C553.181 547.452 553.488 548.063 553.208 548.591C552.927 549.119 552.165 549.365 551.506 549.14L526.799 540.714C526.14 540.489 525.833 539.879 526.113 539.351Z" fill="black"/>
<g clip-path="url(#clip0_2_78)">
<path fill-rule="evenodd" clip-rule="evenodd" d="M408.315 362.664L503.136 346.524C505.317 346.153 507.386 347.62 507.757 349.8L518.168 410.96C518.539 413.141 517.072 415.209 514.891 415.581L420.07 431.721C417.889 432.092 415.82 430.625 415.449 428.445L405.038 367.285C404.667 365.104 406.134 363.036 408.315 362.664ZM408.651 364.639C407.561 364.824 406.827 365.858 407.013 366.949L417.423 428.109C417.609 429.199 418.643 429.933 419.734 429.747L514.555 413.606C515.645 413.421 516.379 412.386 516.193 411.296L505.783 350.136C505.597 349.046 504.562 348.313 503.473 348.498L408.651 364.639Z" fill="black"/>
<path fill-rule="evenodd" clip-rule="evenodd" d="M425.858 385.903C425.766 385.358 426.132 384.841 426.677 384.748L493.115 373.439C493.66 373.346 494.177 373.713 494.27 374.258C494.362 374.803 493.996 375.321 493.451 375.413L427.013 386.722C426.468 386.815 425.951 386.448 425.858 385.903ZM444.341 371.324C444.248 370.779 444.615 370.262 445.16 370.169L469.077 366.098C469.622 366.005 470.14 366.372 470.232 366.917C470.325 367.462 469.959 367.979 469.413 368.072L445.496 372.143C444.951 372.236 444.434 371.87 444.341 371.324ZM426.725 390.997C426.633 390.452 426.999 389.934 427.544 389.842L493.982 378.533C494.527 378.44 495.044 378.807 495.137 379.352C495.229 379.897 494.863 380.414 494.318 380.507L427.881 391.816C427.335 391.909 426.818 391.542 426.725 390.997ZM427.746 396.995C427.654 396.45 428.02 395.933 428.565 395.84L495.003 384.531C495.548 384.438 496.065 384.805 496.158 385.35C496.25 385.895 495.884 386.412 495.339 386.505L428.902 397.814C428.356 397.907 427.839 397.54 427.746 396.995ZM428.764 402.974C428.671 402.429 429.038 401.912 429.583 401.819L496.02 390.51C496.566 390.418 497.083 390.784 497.176 391.329C497.268 391.875 496.902 392.392 496.356 392.485L429.919 403.793C429.374 403.886 428.857 403.52 428.764 402.974ZM429.707 408.51C429.614 407.965 429.98 407.448 430.526 407.355L461.53 402.078C462.075 401.985 462.592 402.352 462.685 402.897C462.778 403.442 462.411 403.959 461.866 404.052L430.862 409.329C430.317 409.422 429.799 409.056 429.707 408.51Z" fill="black"/>
<path fill-rule="evenodd" clip-rule="evenodd" d="M490.8 405.975C490.614 404.885 491.348 403.851 492.438 403.665L503.068 401.856C504.158 401.67 505.193 402.403 505.379 403.494L508.583 422.318C508.719 423.116 508.36 423.918 507.674 424.349C506.989 424.78 506.111 424.756 505.45 424.287L500.864 421.035L497.612 425.622C497.144 426.282 496.323 426.596 495.533 426.415C494.744 426.236 494.14 425.598 494.004 424.799L490.8 405.975ZM500.389 418.244L506.609 422.654L503.405 403.83L492.774 405.639L495.978 424.463L500.389 418.244Z" fill="black"/>
<path fill-rule="evenodd" clip-rule="evenodd" d="M509.146 403.475C510.15 409.373 506.244 415.002 500.36 416.003C494.476 417.005 488.927 412.985 487.924 407.088C486.92 401.19 490.826 395.561 496.71 394.56C502.594 393.558 508.142 397.578 509.146 403.475ZM500.024 414.029C504.793 413.217 507.994 408.642 507.172 403.811C506.349 398.98 501.815 395.722 497.046 396.534C492.276 397.346 489.075 401.921 489.898 406.752C490.72 411.583 495.254 414.841 500.024 414.029Z" fill="black"/>
<path fill-rule="evenodd" clip-rule="evenodd" d="M505.121 404.16C505.742 407.806 503.328 411.303 499.666 411.927C496.005 412.55 492.57 410.049 491.949 406.402C491.328 402.756 493.743 399.259 497.404 398.636C501.065 398.013 504.501 400.514 505.121 404.16ZM499.33 409.952C501.878 409.519 503.586 407.076 503.147 404.496C502.708 401.916 500.287 400.176 497.74 400.61C495.193 401.044 493.484 403.486 493.923 406.066C494.362 408.646 496.783 410.386 499.33 409.952Z" fill="black"/>
</g>
<path fill-rule="evenodd" clip-rule="evenodd" d="M524.191 215.635L574.714 198.666C577.168 197.842 579.825 199.163 580.649 201.617L602.787 267.53C603.611 269.985 602.29 272.642 599.836 273.466L549.313 290.435C546.859 291.259 544.201 289.938 543.377 287.484L521.24 221.571C520.416 219.116 521.737 216.459 524.191 215.635ZM524.937 217.856C523.71 218.269 523.049 219.597 523.462 220.824L545.599 286.737C546.011 287.964 547.34 288.625 548.567 288.213L599.09 271.245C600.317 270.833 600.977 269.504 600.565 268.277L578.428 202.363C578.016 201.136 576.687 200.476 575.46 200.888L524.937 217.856Z" fill="black"/>
<path fill-rule="evenodd" clip-rule="evenodd" d="M538.591 230.397C538.385 229.783 538.715 229.119 539.329 228.913L569.423 218.806C570.036 218.6 570.701 218.93 570.907 219.543C571.113 220.157 570.783 220.821 570.169 221.027L540.075 231.135C539.461 231.341 538.797 231.01 538.591 230.397ZM540.991 237.543C540.785 236.929 541.115 236.265 541.728 236.059L571.822 225.951C572.436 225.745 573.1 226.076 573.306 226.689C573.513 227.303 573.182 227.967 572.569 228.173L542.475 238.28C541.861 238.487 541.197 238.156 540.991 237.543ZM543.391 244.688C543.185 244.075 543.515 243.411 544.129 243.205L574.223 233.097C574.837 232.891 575.501 233.221 575.707 233.835C575.913 234.448 575.583 235.113 574.969 235.319L544.875 245.426C544.262 245.632 543.597 245.302 543.391 244.688ZM545.791 251.834C545.585 251.22 545.915 250.556 546.529 250.35L576.623 240.243C577.236 240.037 577.901 240.367 578.107 240.981C578.313 241.594 577.982 242.258 577.369 242.464L547.275 252.572C546.661 252.778 545.997 252.448 545.791 251.834ZM548.191 258.979C547.985 258.366 548.315 257.702 548.928 257.495L579.022 247.388C579.636 247.182 580.3 247.512 580.506 248.126C580.712 248.739 580.382 249.404 579.768 249.61L549.675 259.717C549.061 259.923 548.397 259.593 548.191 258.979ZM564.961 261.289C565.168 261.902 564.838 262.567 564.225 262.773L552.075 266.863C551.462 267.069 550.797 266.739 550.59 266.126C550.384 265.512 550.714 264.848 551.327 264.641L563.477 260.552C564.09 260.345 564.755 260.675 564.961 261.289Z" fill="black"/>
<path fill-rule="evenodd" clip-rule="evenodd" d="M592.228 201.327L643.641 215.368C646.139 216.05 647.611 218.628 646.929 221.125L628.61 288.2C627.928 290.698 625.35 292.17 622.853 291.488L571.44 277.446C568.942 276.764 567.471 274.186 568.153 271.689L586.471 204.614C587.153 202.117 589.731 200.645 592.228 201.327ZM591.611 203.588C590.362 203.247 589.073 203.983 588.732 205.232L570.414 272.306C570.073 273.555 570.808 274.844 572.057 275.185L623.47 289.226C624.719 289.567 626.008 288.831 626.348 287.583L644.667 220.508C645.008 219.259 644.272 217.97 643.024 217.629L591.611 203.588Z" fill="black"/>
<path fill-rule="evenodd" clip-rule="evenodd" d="M613.811 263.74C614.263 263.869 614.596 264.255 614.654 264.722L616.102 276.231C616.182 276.873 615.727 277.459 615.085 277.54C614.443 277.621 613.857 277.165 613.776 276.523L612.674 267.757L607.084 274.716C606.678 275.221 605.941 275.301 605.436 274.896C604.932 274.491 604.851 273.753 605.257 273.248L612.578 264.134C612.873 263.767 613.358 263.612 613.811 263.74Z" fill="black"/>
<path fill-rule="evenodd" clip-rule="evenodd" d="M608.302 269.914C608.473 269.289 609.117 268.921 609.741 269.092L614.631 270.428C615.256 270.598 615.624 271.242 615.453 271.867C615.283 272.491 614.638 272.859 614.014 272.688L609.124 271.353C608.499 271.182 608.131 270.538 608.302 269.914ZM620.838 270.039C621.463 270.209 621.83 270.854 621.66 271.478L620.739 274.851C620.568 275.475 619.924 275.843 619.3 275.672C618.675 275.502 618.307 274.857 618.478 274.233L619.399 270.861C619.569 270.236 620.214 269.868 620.838 270.039Z" fill="black"/>
<path fill-rule="evenodd" clip-rule="evenodd" d="M622.885 273.624C622.715 274.249 622.07 274.617 621.446 274.446L618.074 273.525C617.449 273.355 617.081 272.71 617.252 272.086C617.422 271.462 618.067 271.094 618.691 271.264L622.064 272.185C622.688 272.356 623.056 273 622.885 273.624Z" fill="black"/>
<path fill-rule="evenodd" clip-rule="evenodd" d="M607.09 243.962L619.611 236.813C621.757 235.588 624.489 236.334 625.714 238.48C626.94 240.625 626.193 243.358 624.047 244.583L609.632 252.814C609.587 252.844 609.54 252.873 609.492 252.9L605.797 255.01C605.239 255.329 604.604 255.393 604.029 255.239C603.441 255.085 602.913 254.703 602.588 254.133L600.479 250.439C600.451 250.39 600.425 250.341 600.401 250.291L595.313 241.379C594.087 239.234 594.834 236.501 596.979 235.276C599.125 234.051 601.858 234.797 603.083 236.943L607.09 243.962ZM623.679 239.642C624.262 240.663 623.907 241.964 622.885 242.548L608.332 250.857C608.33 250.858 608.33 250.86 608.331 250.861C608.331 250.862 608.331 250.862 608.331 250.863C608.331 250.864 608.33 250.864 608.33 250.865L604.635 252.974C604.634 252.975 604.632 252.975 604.631 252.973C604.63 252.972 604.629 252.971 604.627 252.972C604.626 252.973 604.624 252.973 604.623 252.971L602.514 249.277C602.513 249.275 602.514 249.274 602.515 249.273C602.516 249.272 602.517 249.27 602.516 249.269L597.348 240.217C596.765 239.196 597.12 237.895 598.141 237.311C599.163 236.728 600.464 237.083 601.047 238.105L605.055 245.124C605.697 246.248 607.128 246.639 608.252 245.997L620.773 238.848C621.794 238.265 623.096 238.62 623.679 239.642Z" fill="black"/>
<path fill-rule="evenodd" clip-rule="evenodd" d="M827.948 356.289H906.387C909.798 356.289 912.564 359.054 912.564 362.466V413.869C912.564 417.281 909.798 420.046 906.387 420.046H827.948C824.537 420.046 821.772 417.281 821.772 413.869V362.466C821.772 359.054 824.537 356.289 827.948 356.289ZM827.948 357.833C825.39 357.833 823.316 359.907 823.316 362.466V413.869C823.316 416.428 825.39 418.502 827.948 418.502H906.387C908.946 418.502 911.019 416.428 911.019 413.869V362.466C911.019 359.907 908.946 357.833 906.387 357.833H827.948Z" fill="black"/>
<path d="M828.751 372.215C828.751 370.51 830.133 369.127 831.839 369.127H867.752C869.458 369.127 870.84 370.51 870.84 372.215V391.705C870.84 393.411 869.458 394.794 867.752 394.794H831.839C830.133 394.794 828.751 393.411 828.751 391.705V372.215Z" fill="black"/>
<path fill-rule="evenodd" clip-rule="evenodd" d="M828.151 398.613C828.147 397.761 828.835 397.066 829.688 397.062L869.41 396.884C870.263 396.88 870.958 397.568 870.961 398.421C870.965 399.274 870.277 399.968 869.424 399.972L829.702 400.151C828.849 400.154 828.155 399.466 828.151 398.613ZM828.397 403.054C828.397 402.628 828.742 402.282 829.169 402.282H859.684C860.11 402.282 860.456 402.628 860.456 403.054C860.456 403.481 860.11 403.826 859.684 403.826H829.169C828.742 403.826 828.397 403.481 828.397 403.054ZM828.397 410.732C828.397 410.305 828.742 409.96 829.169 409.96H859.684C860.11 409.96 860.456 410.305 860.456 410.732C860.456 411.158 860.11 411.504 859.684 411.504H829.169C828.742 411.504 828.397 411.158 828.397 410.732ZM828.397 405.931C828.397 405.504 828.742 405.159 829.169 405.159H844.821C845.247 405.159 845.593 405.504 845.593 405.931C845.593 406.357 845.247 406.703 844.821 406.703H829.169C828.742 406.703 828.397 406.357 828.397 405.931ZM828.397 413.099C828.397 412.673 828.742 412.327 829.169 412.327H840.612C841.038 412.327 841.384 412.673 841.384 413.099C841.384 413.526 841.038 413.871 840.612 413.871H829.169C828.742 413.871 828.397 413.526 828.397 413.099ZM894.03 370.573C894.03 370.147 894.376 369.801 894.802 369.801H907.495C907.922 369.801 908.268 370.147 908.268 370.573C908.268 371 907.922 371.345 907.495 371.345H894.802C894.376 371.345 894.03 371 894.03 370.573ZM894.031 373.723C894.031 373.296 894.376 372.951 894.803 372.951H901.731C902.158 372.951 902.503 373.296 902.503 373.723C902.503 374.149 902.158 374.495 901.731 374.495H894.803C894.376 374.495 894.031 374.149 894.031 373.723ZM894.03 401.854C894.03 401.428 894.376 401.082 894.802 401.082H907.495C907.922 401.082 908.268 401.428 908.268 401.854C908.268 402.281 907.922 402.626 907.495 402.626H894.802C894.376 402.626 894.03 402.281 894.03 401.854ZM894.031 405.004C894.031 404.577 894.376 404.232 894.803 404.232H901.731C902.158 404.232 902.503 404.577 902.503 405.004C902.503 405.43 902.158 405.776 901.731 405.776H894.803C894.376 405.776 894.031 405.43 894.031 405.004ZM894.03 385.018C894.03 384.592 894.376 384.246 894.802 384.246H907.495C907.922 384.246 908.268 384.592 908.268 385.018C908.268 385.444 907.922 385.79 907.495 385.79H894.802C894.376 385.79 894.03 385.444 894.03 385.018ZM894.031 388.168C894.031 387.741 894.376 387.396 894.803 387.396H901.731C902.158 387.396 902.503 387.741 902.503 388.168C902.503 388.594 902.158 388.94 901.731 388.94H894.803C894.376 388.94 894.031 388.594 894.031 388.168ZM877.251 368.24H889.773C891.479 368.24 892.861 369.623 892.861 371.329V379.435C892.861 381.141 891.479 382.524 889.773 382.524H877.251C875.546 382.524 874.163 381.141 874.163 379.435V371.329C874.163 369.623 875.546 368.24 877.251 368.24ZM877.251 369.784C876.398 369.784 875.707 370.476 875.707 371.329V379.435C875.707 380.288 876.398 380.979 877.251 380.979H889.773C890.626 380.979 891.317 380.288 891.317 379.435V371.329C891.317 370.476 890.626 369.784 889.773 369.784H877.251Z" fill="black"/>
<path fill-rule="evenodd" clip-rule="evenodd" d="M829.615 361.269H904.922C906.251 361.269 907.33 362.347 907.33 363.677C907.33 365.008 906.251 366.086 904.922 366.086H829.615C828.285 366.086 827.206 365.008 827.206 363.677C827.206 362.347 828.285 361.269 829.615 361.269ZM829.615 362.813C829.137 362.813 828.751 363.2 828.751 363.677C828.751 364.155 829.137 364.542 829.615 364.542H904.922C905.399 364.542 905.785 364.155 905.785 363.677C905.785 363.2 905.399 362.813 904.922 362.813H829.615ZM877.251 383.279H889.773C891.479 383.279 892.861 384.662 892.861 386.368V394.475C892.861 396.18 891.479 397.563 889.773 397.563H877.251C875.546 397.563 874.163 396.18 874.163 394.475V386.368C874.163 384.662 875.546 383.279 877.251 383.279ZM877.251 384.824C876.398 384.824 875.707 385.515 875.707 386.368V394.475C875.707 395.327 876.398 396.019 877.251 396.019H889.773C890.626 396.019 891.317 395.327 891.317 394.475V386.368C891.317 385.515 890.626 384.824 889.773 384.824H877.251ZM877.251 399.285H889.773C891.479 399.285 892.861 400.668 892.861 402.373V410.48C892.861 412.186 891.479 413.568 889.773 413.568H877.251C875.546 413.568 874.163 412.186 874.163 410.48V402.373C874.163 400.668 875.546 399.285 877.251 399.285ZM877.251 400.829C876.398 400.829 875.707 401.52 875.707 402.373V410.48C875.707 411.333 876.398 412.024 877.251 412.024H889.773C890.626 412.024 891.317 411.333 891.317 410.48V402.373C891.317 401.52 890.626 400.829 889.773 400.829H877.251ZM882.849 376C882.849 376.312 883.2 376.495 883.456 376.316L884.536 375.56C884.754 375.408 884.756 375.085 884.539 374.93L883.459 374.159C883.204 373.976 882.849 374.159 882.849 374.473V376ZM884.357 372.902L885.436 373.673C886.52 374.448 886.513 376.062 885.421 376.825L884.342 377.581C883.062 378.477 881.305 377.561 881.305 376V374.473C881.305 372.903 883.079 371.99 884.357 372.902Z" fill="black"/>
<path fill-rule="evenodd" clip-rule="evenodd" d="M882.849 391.635C882.849 391.948 883.2 392.131 883.456 391.951L884.536 391.196C884.754 391.043 884.756 390.72 884.539 390.566L883.459 389.794C883.204 389.612 882.849 389.795 882.849 390.109V391.635ZM884.357 388.538L885.436 389.309C886.52 390.083 886.513 391.697 885.421 392.461L884.342 393.217C883.063 394.112 881.305 393.197 881.305 391.635V390.109C881.305 388.539 883.079 387.625 884.357 388.538ZM882.849 407.436C882.849 407.748 883.2 407.931 883.456 407.752L884.536 406.996C884.754 406.844 884.756 406.521 884.539 406.366L883.459 405.595C883.204 405.412 882.849 405.595 882.849 405.909V407.436ZM884.357 404.338L885.436 405.109C886.52 405.884 886.513 407.497 885.421 408.261L884.342 409.017C883.063 409.912 881.305 408.997 881.305 407.436V405.909C881.305 404.339 883.079 403.426 884.357 404.338Z" fill="black"/>
<path fill-rule="evenodd" clip-rule="evenodd" d="M740.176 522.432H752.734C759.576 522.432 765.122 516.886 765.122 510.044V489.709C765.122 482.867 759.576 477.321 752.734 477.321H731.35C724.508 477.321 718.961 482.867 718.961 489.709V510.044C718.961 516.778 724.334 522.256 731.026 522.428V533.727L740.176 522.432ZM729.256 524.048C722.429 523.036 717.192 517.152 717.192 510.044V489.709C717.192 481.89 723.53 475.551 731.35 475.551H752.734C760.553 475.551 766.892 481.89 766.892 489.709V510.044C766.892 517.863 760.553 524.202 752.734 524.202H741.02L732.401 534.841C731.929 535.424 731.142 535.646 730.435 535.395C729.728 535.145 729.256 534.477 729.256 533.727V524.048Z" fill="black"/>
<path fill-rule="evenodd" clip-rule="evenodd" d="M719.927 490.036C719.927 483.683 725.077 478.533 731.431 478.533H752.653C759.006 478.533 764.156 483.683 764.156 490.036V509.878C764.156 516.231 759.006 521.382 752.653 521.382H739.974C739.485 521.382 739.089 520.985 739.089 520.497C739.089 520.008 739.485 519.612 739.974 519.612H752.653C758.029 519.612 762.387 515.254 762.387 509.878V490.036C762.387 484.661 758.029 480.303 752.653 480.303H731.431C726.055 480.303 721.697 484.661 721.697 490.036V509.878C721.697 515.254 726.055 519.612 731.431 519.612H732.297C732.785 519.612 733.182 520.008 733.182 520.497C733.182 520.985 732.785 521.382 732.297 521.382H731.431C725.077 521.382 719.927 516.231 719.927 509.878V490.036Z" fill="black"/>
<path fill-rule="evenodd" clip-rule="evenodd" d="M726.109 496.344C726.109 495.611 726.704 495.016 727.437 495.016H738.358C739.091 495.016 739.685 495.611 739.685 496.344C739.685 497.077 739.091 497.671 738.358 497.671H727.437C726.704 497.671 726.109 497.077 726.109 496.344ZM726.109 487.951C726.109 487.217 726.704 486.623 727.437 486.623H753.171C753.904 486.623 754.498 487.217 754.498 487.951C754.498 488.684 753.904 489.278 753.171 489.278H727.437C726.704 489.278 726.109 488.684 726.109 487.951ZM726.109 504.212C726.109 503.479 726.704 502.885 727.437 502.885H731.98C732.713 502.885 733.307 503.479 733.307 504.212C733.307 504.945 732.713 505.539 731.98 505.539H727.437C726.704 505.539 726.109 504.945 726.109 504.212Z" fill="black"/>
<path fill-rule="evenodd" clip-rule="evenodd" d="M780.288 512.851H764.921C758.079 512.851 752.532 507.305 752.532 500.463V468.588C752.532 461.746 758.079 456.199 764.921 456.199H791.55C798.392 456.199 803.939 461.746 803.939 468.588V500.463C803.939 507.196 798.566 512.675 791.874 512.847V527.154L780.288 512.851ZM793.644 514.467C800.471 513.455 805.709 507.571 805.709 500.463V468.588C805.709 460.768 799.369 454.429 791.55 454.429H764.921C757.101 454.429 750.762 460.768 750.762 468.588V500.463C750.762 508.282 757.101 514.621 764.921 514.621H779.444L790.499 528.268C790.971 528.85 791.759 529.072 792.465 528.822C793.172 528.572 793.644 527.903 793.644 527.154V514.467Z" fill="black"/>
<path fill-rule="evenodd" clip-rule="evenodd" d="M753.649 469.166C753.649 462.813 758.8 457.662 765.153 457.662H791.188C797.541 457.662 802.692 462.813 802.692 469.166V499.624C802.692 505.977 797.541 511.128 791.188 511.128H790.876C790.387 511.128 789.991 510.731 789.991 510.243C789.991 509.754 790.387 509.358 790.876 509.358H791.188C796.564 509.358 800.922 505 800.922 499.624V469.166C800.922 463.79 796.564 459.432 791.188 459.432H765.153C759.777 459.432 755.419 463.79 755.419 469.166V499.624C755.419 505 759.777 509.358 765.153 509.358H781.003C781.491 509.358 781.887 509.754 781.887 510.243C781.887 510.731 781.491 511.128 781.003 511.128H765.153C758.8 511.128 753.649 505.977 753.649 499.624V469.166Z" fill="black"/>
<path fill-rule="evenodd" clip-rule="evenodd" d="M761.866 487.116C761.866 486.139 762.658 485.346 763.635 485.346H792.847C793.825 485.346 794.617 486.139 794.617 487.116C794.617 488.093 793.825 488.886 792.847 488.886H763.635C762.658 488.886 761.866 488.093 761.866 487.116ZM761.866 477.92C761.866 476.942 762.658 476.15 763.635 476.15H792.847C793.825 476.15 794.617 476.942 794.617 477.92C794.617 478.897 793.825 479.69 792.847 479.69H763.635C762.658 479.69 761.866 478.897 761.866 477.92ZM761.865 469.072C761.865 468.095 762.658 467.302 763.635 467.302H792.847C793.825 467.302 794.617 468.095 794.617 469.072C794.617 470.049 793.825 470.842 792.847 470.842H763.635C762.658 470.842 761.865 470.049 761.865 469.072ZM761.866 495.736C761.866 494.759 762.658 493.966 763.635 493.966H779.493C780.471 493.966 781.263 494.759 781.263 495.736C781.263 496.714 780.471 497.506 779.493 497.506H763.635C762.658 497.506 761.866 496.714 761.866 495.736Z" fill="black"/>
<path fill-rule="evenodd" clip-rule="evenodd" d="M796.9 271C796.9 289.491 781.91 304.481 763.419 304.481C744.929 304.481 729.939 289.491 729.939 271C729.939 252.509 744.929 237.519 763.419 237.519C781.91 237.519 796.9 252.509 796.9 271ZM763.419 302.606C780.875 302.606 795.025 288.455 795.025 271C795.025 253.545 780.875 239.394 763.419 239.394C745.964 239.394 731.814 253.545 731.814 271C731.814 288.455 745.964 302.606 763.419 302.606Z" fill="black"/>
<path fill-rule="evenodd" clip-rule="evenodd" d="M759.669 298.856C777.125 298.856 791.275 284.705 791.275 267.25C791.275 259.477 788.469 252.359 783.815 246.855C790.671 252.652 795.025 261.318 795.025 271C795.025 288.455 780.875 302.606 763.419 302.606C753.737 302.606 745.072 298.252 739.274 291.395C744.779 296.05 751.896 298.856 759.669 298.856Z" fill="black"/>
<path fill-rule="evenodd" clip-rule="evenodd" d="M731.761 267.21L731.799 271.408C731.808 272.453 731.993 275.004 732.32 276.696L732.496 277.606L731.879 278.299C729.395 281.087 727.704 283.609 726.84 285.711C725.963 287.844 726.062 289.209 726.541 290.039C727.036 290.897 728.231 291.687 730.659 291.972C733.044 292.252 736.246 291.987 740.094 291.133C747.767 289.431 757.582 285.486 767.671 279.661C777.759 273.836 786.083 267.309 791.394 261.515C794.057 258.609 795.888 255.969 796.838 253.763C797.805 251.518 797.718 250.089 797.223 249.231C796.777 248.459 795.771 247.74 793.774 247.395C791.793 247.052 789.122 247.135 785.865 247.701L785.001 247.852L784.332 247.285C783.652 246.709 781.849 245.268 780.179 244.188L776.697 241.936L780.688 240.81C787.37 238.923 793.431 238.047 798.3 238.377C803.1 238.702 807.22 240.248 809.232 243.733C810.898 246.617 810.683 250.101 809.379 253.619C808.072 257.152 805.577 260.997 802.207 264.92C795.455 272.779 784.907 281.279 772.181 288.627C759.454 295.974 746.819 300.859 736.637 302.776C731.555 303.733 726.978 303.971 723.264 303.338C719.566 302.707 716.441 301.152 714.776 298.267C712.625 294.542 713.569 289.85 716.051 285.197C718.577 280.462 722.95 275.251 728.66 270.04L731.761 267.21ZM783.589 241.976C795.564 238.975 804.714 239.658 807.608 244.67C812.711 253.508 796.43 272.461 771.243 287.003C746.057 301.544 721.502 306.167 716.4 297.33C713.276 291.919 718.091 282.765 728.124 273.111C728.706 272.551 729.307 271.988 729.924 271.425C729.929 271.968 729.976 272.866 730.062 273.854C730.155 274.925 730.295 276.102 730.479 277.051C725.365 282.791 723.119 287.861 724.917 290.977C728.632 297.411 748.193 293.071 768.608 281.285C789.023 269.498 802.561 254.727 798.847 248.293C797.173 245.394 792.281 244.682 785.544 245.854C785.103 245.481 784.223 244.769 783.2 244.012C782.564 243.54 781.873 243.051 781.197 242.614C782.006 242.386 782.804 242.173 783.589 241.976Z" fill="black"/>
<path fill-rule="evenodd" clip-rule="evenodd" d="M805.733 243.733C810.836 252.571 794.555 271.524 769.368 286.066C748.509 298.109 728.084 303.349 718.782 299.774C726.943 305.024 748.843 299.936 771.243 287.003C796.43 272.461 812.711 253.509 807.608 244.67C806.732 243.152 805.281 242.031 803.351 241.289C804.367 241.942 805.169 242.755 805.733 243.733ZM784.26 244.818C784.813 245.249 785.266 245.619 785.544 245.854C789.755 245.122 793.246 245.125 795.68 245.939C793.458 244.316 789.434 243.99 784.26 244.818ZM730.138 274.651C729.609 275.115 729.035 275.646 728.604 276.114C724.638 280.422 721.244 286.924 723.042 290.039C723.67 291.126 724.75 291.906 726.209 292.394C725.669 291.999 725.235 291.527 724.917 290.977C723.119 287.861 725.365 282.791 730.479 277.052C730.34 276.333 730.226 275.485 730.138 274.651Z" fill="black"/>
<path fill-rule="evenodd" clip-rule="evenodd" d="M796.643 242.212C794.346 242.068 791.809 242.333 789.476 242.758C789.222 242.805 788.978 242.636 788.931 242.382C788.885 242.127 789.053 241.883 789.308 241.836C791.682 241.403 794.301 241.126 796.702 241.276C799.091 241.427 801.333 242.005 802.883 243.349C803.078 243.519 803.099 243.815 802.93 244.011C802.761 244.206 802.464 244.227 802.268 244.058C800.948 242.912 798.951 242.357 796.643 242.212Z" fill="black"/>
<path d="M783.914 263.977C783.914 264.916 783.153 265.676 782.214 265.676C781.276 265.676 780.515 264.916 780.515 263.977C780.515 263.039 781.276 262.278 782.214 262.278C783.153 262.278 783.914 263.039 783.914 263.977ZM755.802 248.554C755.802 249.492 755.042 250.253 754.103 250.253C753.165 250.253 752.404 249.492 752.404 248.554C752.404 247.615 753.165 246.854 754.103 246.854C755.042 246.854 755.802 247.615 755.802 248.554ZM743.43 261.516C743.43 262.455 742.669 263.215 741.731 263.215C740.792 263.215 740.031 262.455 740.031 261.516C740.031 260.578 740.792 259.817 741.731 259.817C742.669 259.817 743.43 260.578 743.43 261.516ZM751.809 278.626C751.809 280.082 750.628 281.262 749.172 281.262C747.716 281.262 746.535 280.082 746.535 278.626C746.535 277.169 747.716 275.989 749.172 275.989C750.628 275.989 751.809 277.169 751.809 278.626ZM763.663 261.34C763.663 262.797 762.483 263.977 761.026 263.977C759.57 263.977 758.39 262.797 758.39 261.34C758.39 259.884 759.57 258.704 761.026 258.704C762.483 258.704 763.663 259.884 763.663 261.34ZM776.675 250.253C776.675 251.709 775.495 252.89 774.039 252.89C772.582 252.89 771.402 251.709 771.402 250.253C771.402 248.797 772.582 247.616 774.039 247.616C775.495 247.616 776.675 248.797 776.675 250.253ZM772.423 275.989C772.423 277.445 771.243 278.626 769.786 278.626C768.33 278.626 767.15 277.445 767.15 275.989C767.15 274.533 768.33 273.352 769.786 273.352C771.243 273.352 772.423 274.533 772.423 275.989Z" fill="black"/>
<defs>
<clipPath id="clip0_2_78">
<rect width="128.165" height="128.165" fill="white" transform="translate(391 341.507) rotate(-9.6603)"/>
</clipPath>
</defs>
</svg>
